<svg id="Capa_1" data-name="Capa 1" xmlns="http://www.w3.org/2000/svg" viewBox="0 0 38985.37 39604.96"><defs><style>.cls-1{opacity:0.74;}.cls-2{fill:none;stroke:#c6c6c6;stroke-miterlimit:10;stroke-width:0.5px;}.cls-3{font-size:12.92px;fill:#6c757d;font-family:Nunito-Light, Nunito;font-weight:300;}.cls-4{letter-spacing:0em;}.cls-5{letter-spacing:0em;}.cls-6{letter-spacing:0em;}.cls-7{font-size:6px;letter-spacing:-0.02em;}.cls-8{letter-spacing:0em;}</style></defs><title>drop</title><g class="cls-1"><path class="cls-2" d="M837.13,389.55V361.27a2.53,2.53,0,0,0-2.64-2.41H796a2.53,2.53,0,0,0-2.64,2.41v28.28A2.53,2.53,0,0,0,796,392h38.5A2.54,2.54,0,0,0,837.13,389.55Zm-41.53,0v-11l6.08-5.48a.39.39,0,0,1,.27-.1.36.36,0,0,1,.26.1l1.29,1.18a1.23,1.23,0,0,0,1.61,0,1,1,0,0,0,0-1.46l-1.29-1.18a2.82,2.82,0,0,0-3.74,0l-4.33,4V361.32c-.06-.19.31-.39.31-.39h38.43a.36.36,0,0,1,.37.34v28.28a.36.36,0,0,1-.37.34h-1.11L819.26,377a2.83,2.83,0,0,0-3.74,0l-2.9,2.65-4-3.62a1.19,1.19,0,0,0-1.6,0,1,1,0,0,0,0,1.46l4.24,3.86a2,2,0,0,0,1.34.51,1.94,1.94,0,0,0,1.33-.51l3.17-2.89a.42.42,0,0,1,.54,0l12.51,11.41H796a.36.36,0,0,1-.38-.34Z" transform="translate(-702.49 -346.75)"/><path class="cls-2" d="M844.68,397.52V384.3a1.14,1.14,0,0,0-2.27,0V396a13.48,13.48,0,0,0-6.46-1.62c-6.47,0-11.83,4.44-12.61,10.17H789.18a1.09,1.09,0,0,1-1.13-1V350.1a1.09,1.09,0,0,1,1.13-1h52.3a1,1,0,0,1,1.08,1v29.1a1,1,0,0,0,.83,1,1.05,1.05,0,0,0,1.29-1V347.35a.36.36,0,0,0-.38-.35H786.17a.36.36,0,0,0-.38.35v58.88a.37.37,0,0,0,.38.35h37.08a11,11,0,0,0,2.49,6.32.12.12,0,0,0,.08,0c1.42.29,2-.86,1.49-1.59A8.93,8.93,0,0,1,825.5,406c0-7.46,9.42-13,18-7.08a1,1,0,0,1,.23.22c6.44,7.81.43,16.42-7.75,16.42A11.33,11.33,0,0,1,831,414.4a1.15,1.15,0,0,0-1.57,1.52.11.11,0,0,0,.06.07,13.64,13.64,0,0,0,6.43,1.6c7,0,12.73-5.22,12.73-11.63a11.14,11.14,0,0,0-4-8.44Z" transform="translate(-702.49 -346.75)"/><path class="cls-2" d="M834.86,401.68v3.24h-3.55a1.14,1.14,0,0,0-1.17.91,1.08,1.08,0,0,0,1.13,1.16h3.59v3.25a1.14,1.14,0,0,0,2.27,0V407h3.55a1.14,1.14,0,0,0,1.17-.9,1.08,1.08,0,0,0-1.13-1.17h-3.59v-3.28a1.14,1.14,0,0,0-2.27,0Z" transform="translate(-702.49 -346.75)"/><ellipse class="cls-2" cx="93.65" cy="50.12" rx="1.59" ry="1.45"/><ellipse class="cls-2" cx="99.26" cy="50.12" rx="1.59" ry="1.45"/><ellipse class="cls-2" cx="104.87" cy="50.13" rx="1.59" ry="1.45"/><path class="cls-2" d="M819.65,355.55a1.06,1.06,0,0,0,1.12-1.16,1.13,1.13,0,0,0-1.16-.91h-4.83a1.13,1.13,0,0,0-1.16.91,1.06,1.06,0,0,0,1.12,1.16Z" transform="translate(-702.49 -346.75)"/><path class="cls-2" d="M808.94,355.55a1.07,1.07,0,0,0,1.12-1.16,1.14,1.14,0,0,0-1.17-.91H795.58a1.14,1.14,0,0,0-1.17.91,1.07,1.07,0,0,0,1.12,1.16Z" transform="translate(-702.49 -346.75)"/><path class="cls-2" d="M824.88,373.4a3.68,3.68,0,1,0-4-3.66A3.85,3.85,0,0,0,824.88,373.4Zm0-5.25a1.6,1.6,0,1,1-1.74,1.59A1.67,1.67,0,0,1,824.88,368.15Z" transform="translate(-702.49 -346.75)"/></g><text class="cls-3" transform="translate(55.51 90.68) scale(1.04 1)">Ar<tspan class="cls-4" x="13.69" y="0">r</tspan><tspan x="18" y="0">a</tspan><tspan class="cls-5" x="24.8" y="0">s</tspan><tspan class="cls-6" x="30.91" y="0">ta una Imagen</tspan><tspan x="43.78" y="15.51">- o -</tspan><tspan x="26.56" y="31.02">selecciona</tspan><tspan class="cls-7"><tspan x="16.59" y="45.42">P</tspan><tspan class="cls-8" x="20.33" y="45.42">eso máximo de imagen 2MB</tspan></tspan></text><text x="-702.49" y="-346.75"/></svg>