<?xml version="1.0" encoding="utf-8"?>
<!-- Generator: Adobe Illustrator 23.0.5, SVG Export Plug-In . SVG Version: 6.00 Build 0)  -->
<svg version="1.1" id="Capa_1" xmlns="http://www.w3.org/2000/svg" xmlns:xlink="http://www.w3.org/1999/xlink" x="0px" y="0px"
	 viewBox="0 0 512 512" style="enable-background:new 0 0 512 512;" xml:space="preserve">
<style type="text/css">
	.st0{opacity:0.72;}
	.st1{fill:#C6C6C6;}
	.st2{opacity:0.93;}
	.st3{fill:#6C757D;}
</style>
<g class="st0">
	<path class="st1" d="M337.1,227.4v-100c0-4.7-4.1-8.5-9.2-8.5H193.5c-5.1,0-9.2,3.8-9.2,8.5v100c0,4.7,4.1,8.5,9.2,8.5h134.4
		C333,235.9,337.1,232.1,337.1,227.4z M192.2,227.4v-39l20.9-19.3c0.3-0.3,0.7-0.4,0.9-0.4s0.6,0,0.9,0.4l4.5,4.2
		c1.5,1.4,4,1.4,5.6,0c1.5-1.4,1.5-3.7,0-5.2l-4.5-4.2c-1.7-1.6-4.1-2.5-6.5-2.5c-2.5,0-4.8,0.9-6.5,2.5L192.2,178v-50.6
		c0-0.7,0.6-1.2,1.3-1.2h134.4c0.7,0,1.3,0.5,1.3,1.2v100c0,0.7-0.6,1.2-1.3,1.2H324l-49.3-45.5c-3.6-3.3-9.5-3.3-13.1,0l-10.1,9.4
		l-13.9-12.8c-1.5-1.4-4-1.4-5.6,0c-1.5,1.4-1.5,3.7,0,5.2l14.8,13.7c1.2,1.1,2.9,1.8,4.7,1.8c1.8,0,3.4-0.6,4.7-1.8l11.1-10.2
		c0.5-0.5,1.4-0.5,1.9,0l43.7,40.3H193.5C192.7,228.6,192.2,228.1,192.2,227.4L192.2,227.4z"/>
	<path class="st1" d="M363.7,255.2v-46.8c0-2-1.8-3.7-4-3.7c-2.2,0-4,1.6-4,3.7v41.3c-6.6-3.6-14.4-5.7-22.6-5.7
		c-22.6,0-41.4,15.7-44.1,35.9H169.6c-2.2,0-4-1.6-4-3.7V87.7c0-2,1.8-3.7,4-3.7h182.2c2.2,0,4,1.6,4,3.7v102.6c0,2,1.8,3.7,4,3.7
		c2.2,0,4-1.6,4-3.7V87.7c0-6-5.3-11-11.9-11H169.6c-6.5,0-11.9,4.9-11.9,11v188.6c0,6,5.3,11,11.9,11h119.2
		c0.4,7.5,3.1,14.8,7.7,21c1.2,1.7,3.7,2.1,5.5,1c1.8-1.1,2.3-3.4,1-5.1c-4.2-5.6-6.4-12.2-6.4-19c0-18.6,16.4-33.8,36.6-33.8
		s36.6,15.2,36.6,33.8s-16.4,33.8-36.6,33.8c-6,0-12-1.4-17.2-4c-1.9-1-4.3-0.3-5.4,1.5c-1,1.8-0.3,4,1.6,4.9
		c6.4,3.2,13.7,4.8,21,4.8c24.5,0,44.5-18.4,44.5-41.1C377.7,273.4,372.3,262.7,363.7,255.2L363.7,255.2z"/>
	<path class="st1" d="M333.2,266.3c-2.2,0-4,1.6-4,3.7v11.6h-12.6c-2.2,0-4,1.6-4,3.7s1.8,3.7,4,3.7h12.6v11.6c0,2,1.8,3.7,4,3.7
		c2.2,0,4-1.6,4-3.7v-11.6h12.6c2.2,0,4-1.6,4-3.7s-1.8-3.7-4-3.7h-12.6V270C337.1,267.9,335.3,266.3,333.2,266.3z"/>
	<ellipse class="st1" cx="193.7" cy="253" rx="5.5" ry="5.1"/>
	<ellipse class="st1" cx="213.3" cy="253" rx="5.5" ry="5.1"/>
	<ellipse class="st1" cx="232.9" cy="253" rx="5.5" ry="5.1"/>
	<path class="st1" d="M275.9,107.1c2.2,0,4-1.6,4-3.7c0-2-1.8-3.7-4-3.7h-17.1c-2.2,0-4,1.6-4,3.7c0,2,1.8,3.7,4,3.7H275.9z"/>
	<path class="st1" d="M238.4,107.1c2.2,0,4-1.6,4-3.7c0-2-1.8-3.7-4-3.7h-46.8c-2.2,0-4,1.6-4,3.7c0,2,1.8,3.7,4,3.7H238.4z"/>
	<path class="st1" d="M294.2,170.1c7.7,0,14-5.8,14-12.9c0-7.1-6.3-12.9-14-12.9s-14,5.8-14,12.9
		C280.2,164.3,286.5,170.1,294.2,170.1z M294.2,151.5c3.4,0,6.1,2.5,6.1,5.6c0,3.1-2.7,5.6-6.1,5.6s-6.1-2.5-6.1-5.6
		C288.1,154.1,290.8,151.5,294.2,151.5z"/>
</g>
<g class="st2">
	<path class="st3" d="M46.1,380.5c0,0.4-0.2,0.7-0.5,1s-0.8,0.4-1.2,0.4c-0.3,0-0.6-0.1-0.9-0.3c-0.3-0.2-0.5-0.4-0.7-0.7l-4.4-9.3
		H15.7l-4.5,9.3c-0.3,0.7-0.9,1-1.6,1c-0.5,0-0.9-0.1-1.2-0.4c-0.3-0.3-0.5-0.6-0.5-1c0-0.3,0-0.4,0.1-0.6l17-35.1
		c0.3-0.8,1-1.2,1.9-1.2c0.4,0,0.8,0.1,1.2,0.3c0.4,0.2,0.6,0.5,0.8,0.9l17,35.1C46,380.1,46.1,380.3,46.1,380.5z M36.9,368.7
		L27,348l-10,20.7H36.9z"/>
	<path class="st3" d="M67.3,355.4c0.3,0.2,0.5,0.6,0.5,1.1c0,0.9-0.6,1.4-1.7,1.5l-1.7,0.2c-2.8,0.3-4.8,1.2-6.1,2.7
		c-1.3,1.6-2,3.4-2,5.5v13.9c0,0.5-0.2,0.9-0.5,1.2c-0.3,0.3-0.7,0.4-1.3,0.4c-0.5,0-1-0.1-1.3-0.4c-0.3-0.3-0.5-0.7-0.5-1.2v-23.4
		c0-0.5,0.2-0.9,0.5-1.2c0.3-0.3,0.8-0.4,1.3-0.4c0.5,0,0.9,0.1,1.2,0.4c0.3,0.3,0.5,0.7,0.5,1.2v3.5c1.6-3.1,4.5-4.7,8.9-5l0.8-0.1
		C66.5,355.1,67,355.2,67.3,355.4z"/>
	<path class="st3" d="M87.1,355.4c0.3,0.2,0.5,0.6,0.5,1.1c0,0.9-0.6,1.4-1.7,1.5l-1.7,0.2c-2.8,0.3-4.8,1.2-6.1,2.7
		c-1.3,1.6-2,3.4-2,5.5v13.9c0,0.5-0.2,0.9-0.5,1.2c-0.3,0.3-0.7,0.4-1.3,0.4c-0.5,0-1-0.1-1.3-0.4c-0.3-0.3-0.5-0.7-0.5-1.2v-23.4
		c0-0.5,0.2-0.9,0.5-1.2c0.3-0.3,0.8-0.4,1.3-0.4c0.5,0,0.9,0.1,1.2,0.4c0.3,0.3,0.5,0.7,0.5,1.2v3.5c1.6-3.1,4.5-4.7,8.9-5l0.8-0.1
		C86.3,355.1,86.8,355.2,87.1,355.4z"/>
	<path class="st3" d="M110.7,357.5c1.7,1.6,2.5,4.1,2.5,7.4v15.3c0,0.5-0.2,0.9-0.5,1.2c-0.3,0.3-0.7,0.5-1.3,0.5
		c-0.5,0-1-0.2-1.3-0.5c-0.3-0.3-0.5-0.7-0.5-1.2V377c-0.8,1.6-2,2.8-3.6,3.7c-1.6,0.9-3.3,1.3-5.4,1.3c-1.8,0-3.5-0.3-5-1
		c-1.5-0.7-2.7-1.6-3.6-2.8c-0.9-1.2-1.3-2.5-1.3-4c0-1.9,0.5-3.4,1.6-4.5c1.1-1.1,2.9-1.8,5.4-2.3c2.5-0.5,6-0.7,10.5-0.7h1.2v-2
		c0-2.4-0.5-4.1-1.6-5.2c-1-1.1-2.7-1.6-5-1.6c-2.9,0-5.6,0.7-8.2,2.1c-0.1,0.1-0.4,0.3-0.9,0.6c-0.5,0.3-0.9,0.5-1.3,0.5
		c-0.4,0-0.7-0.1-1-0.4c-0.3-0.3-0.4-0.6-0.4-1c0-0.8,0.7-1.6,2-2.3c1.4-0.7,2.9-1.3,4.5-1.7s3.3-0.6,5-0.6
		C106.4,355,109,355.8,110.7,357.5z M107.3,376.8c1.6-1.6,2.4-3.6,2.4-6V369h-1.1c-3.7,0-6.6,0.1-8.6,0.4c-2,0.3-3.4,0.8-4.2,1.5
		c-0.8,0.7-1.2,1.7-1.2,3c0,1.5,0.6,2.7,1.9,3.7c1.2,1,2.8,1.5,4.6,1.5C103.6,379.2,105.7,378.4,107.3,376.8z"/>
	<path class="st3" d="M126.8,381.4c-1.6-0.4-3-1-4.2-1.7c-0.7-0.5-1.3-0.9-1.5-1.2c-0.3-0.3-0.4-0.7-0.4-1.2c0-0.4,0.1-0.7,0.4-0.9
		c0.3-0.2,0.6-0.4,0.9-0.4s1,0.3,1.8,0.8c1.1,0.7,2.3,1.2,3.5,1.7c1.2,0.4,2.7,0.6,4.5,0.6c2.3,0,4.1-0.4,5.4-1.2
		c1.3-0.8,1.9-1.9,1.9-3.3c0-0.9-0.2-1.6-0.7-2.1c-0.5-0.6-1.2-1-2.3-1.4c-1.1-0.4-2.6-0.8-4.7-1.2c-3.5-0.7-5.9-1.6-7.4-2.8
		c-1.5-1.1-2.2-2.6-2.2-4.5c0-2.3,1-4.1,2.9-5.5c1.9-1.4,4.5-2.1,7.6-2.1c1.5,0,3,0.2,4.3,0.5c1.4,0.4,2.6,0.9,3.6,1.6
		c1.4,0.9,2,1.7,2,2.5c0,0.4-0.1,0.7-0.4,0.9c-0.3,0.3-0.6,0.4-0.9,0.4c-0.4,0-1-0.3-1.8-0.9c-1-0.7-2.1-1.2-3.1-1.6
		c-1-0.4-2.3-0.6-3.9-0.6c-2,0-3.6,0.4-4.8,1.3c-1.2,0.8-1.8,2-1.8,3.4c0,0.8,0.2,1.5,0.6,2c0.4,0.5,1.1,1,2.1,1.4
		c1,0.4,2.4,0.8,4.3,1.2c2.7,0.6,4.7,1.2,6.2,1.8c1.4,0.6,2.5,1.4,3.1,2.3c0.6,0.9,0.9,2,0.9,3.4c0,2.2-1,3.9-3,5.3
		c-2,1.3-4.7,2-8,2C130,382,128.4,381.8,126.8,381.4z"/>
	<path class="st3" d="M163.9,380.5c0,0.4-0.2,0.8-0.5,1s-0.9,0.4-1.7,0.3l-1.6-0.1c-3-0.2-5.1-1-6.6-2.5c-1.4-1.5-2.1-3.7-2.1-6.8
		v-14.2H147c-0.5,0-0.8-0.1-1.1-0.3c-0.3-0.2-0.4-0.5-0.4-0.9c0-0.4,0.1-0.7,0.4-1c0.3-0.2,0.6-0.4,1.1-0.4h4.4V349
		c0-0.5,0.2-0.9,0.5-1.2c0.3-0.3,0.7-0.4,1.3-0.4c0.5,0,1,0.1,1.3,0.4c0.3,0.3,0.5,0.7,0.5,1.2v6.6h7c0.5,0,0.9,0.1,1.2,0.4
		c0.3,0.3,0.4,0.6,0.4,1c0,0.4-0.1,0.7-0.4,0.9c-0.3,0.2-0.7,0.3-1.2,0.3h-7v14.4c0,2.2,0.5,3.8,1.4,4.7s2.4,1.5,4.4,1.6l1.6,0.1
		C163.4,379.3,163.9,379.7,163.9,380.5z"/>
	<path class="st3" d="M187.9,357.5c1.7,1.6,2.5,4.1,2.5,7.4v15.3c0,0.5-0.2,0.9-0.5,1.2c-0.3,0.3-0.7,0.5-1.3,0.5
		c-0.5,0-1-0.2-1.3-0.5c-0.3-0.3-0.5-0.7-0.5-1.2V377c-0.8,1.6-2,2.8-3.6,3.7c-1.6,0.9-3.3,1.3-5.4,1.3c-1.8,0-3.5-0.3-5-1
		c-1.5-0.7-2.7-1.6-3.6-2.8c-0.9-1.2-1.3-2.5-1.3-4c0-1.9,0.5-3.4,1.6-4.5c1.1-1.1,2.9-1.8,5.4-2.3c2.5-0.5,6-0.7,10.5-0.7h1.2v-2
		c0-2.4-0.5-4.1-1.6-5.2c-1-1.1-2.7-1.6-5-1.6c-2.9,0-5.6,0.7-8.2,2.1c-0.1,0.1-0.4,0.3-0.9,0.6c-0.5,0.3-0.9,0.5-1.3,0.5
		c-0.4,0-0.7-0.1-1-0.4c-0.3-0.3-0.4-0.6-0.4-1c0-0.8,0.7-1.6,2-2.3c1.4-0.7,2.9-1.3,4.5-1.7s3.3-0.6,5-0.6
		C183.7,355,186.2,355.8,187.9,357.5z M184.5,376.8c1.6-1.6,2.4-3.6,2.4-6V369h-1.1c-3.7,0-6.6,0.1-8.6,0.4c-2,0.3-3.4,0.8-4.2,1.5
		c-0.8,0.7-1.2,1.7-1.2,3c0,1.5,0.6,2.7,1.9,3.7c1.2,1,2.8,1.5,4.6,1.5C180.8,379.2,182.9,378.4,184.5,376.8z"/>
	<path class="st3" d="M236.8,355.6c0.3,0.3,0.5,0.7,0.5,1.2v23.4c0,0.5-0.2,0.9-0.5,1.2c-0.3,0.3-0.8,0.5-1.3,0.5
		c-0.5,0-0.9-0.2-1.2-0.5c-0.3-0.3-0.5-0.7-0.5-1.2V377c-0.9,1.6-2.2,2.9-3.8,3.7c-1.7,0.9-3.5,1.3-5.6,1.3c-3.3,0-5.9-0.8-7.5-2.5
		c-1.7-1.7-2.5-4.2-2.5-7.5v-15.1c0-0.5,0.2-0.9,0.5-1.2c0.3-0.3,0.8-0.5,1.3-0.5c0.5,0,1,0.2,1.3,0.5c0.3,0.3,0.5,0.7,0.5,1.2v14.9
		c0,2.5,0.6,4.4,1.7,5.6c1.1,1.2,2.8,1.8,5.2,1.8c2.7,0,4.9-0.8,6.6-2.4c1.7-1.6,2.5-3.7,2.5-6.3v-13.6c0-0.5,0.2-0.9,0.5-1.2
		c0.3-0.3,0.7-0.5,1.3-0.5C236,355.1,236.5,355.3,236.8,355.6z"/>
	<path class="st3" d="M270,365.1v15.1c0,0.5-0.2,0.9-0.5,1.2c-0.3,0.3-0.7,0.5-1.3,0.5c-0.5,0-1-0.2-1.3-0.5s-0.5-0.7-0.5-1.2v-14.9
		c0-2.6-0.6-4.4-1.7-5.6c-1.1-1.2-2.9-1.8-5.4-1.8c-2.8,0-5,0.8-6.7,2.4c-1.7,1.6-2.5,3.7-2.5,6.3v13.6c0,0.5-0.2,0.9-0.5,1.2
		c-0.3,0.3-0.7,0.5-1.3,0.5c-0.5,0-1-0.2-1.3-0.5c-0.3-0.3-0.5-0.7-0.5-1.2v-23.4c0-0.5,0.2-0.9,0.5-1.2c0.3-0.3,0.8-0.5,1.3-0.5
		c0.5,0,0.9,0.1,1.2,0.4c0.3,0.3,0.5,0.7,0.5,1.2v3.4c0.9-1.6,2.2-2.9,3.9-3.8s3.6-1.3,5.9-1.3C266.6,355,270,358.4,270,365.1z"/>
	<path class="st3" d="M298.1,357.5c1.7,1.6,2.5,4.1,2.5,7.4v15.3c0,0.5-0.2,0.9-0.5,1.2c-0.3,0.3-0.7,0.5-1.3,0.5
		c-0.5,0-1-0.2-1.3-0.5c-0.3-0.3-0.5-0.7-0.5-1.2V377c-0.8,1.6-2,2.8-3.6,3.7c-1.6,0.9-3.3,1.3-5.4,1.3c-1.8,0-3.5-0.3-5-1
		c-1.5-0.7-2.7-1.6-3.6-2.8c-0.9-1.2-1.3-2.5-1.3-4c0-1.9,0.5-3.4,1.6-4.5c1.1-1.1,2.9-1.8,5.4-2.3c2.5-0.5,6-0.7,10.5-0.7h1.2v-2
		c0-2.4-0.5-4.1-1.6-5.2c-1-1.1-2.7-1.6-5-1.6c-2.9,0-5.6,0.7-8.2,2.1c-0.1,0.1-0.4,0.3-0.9,0.6c-0.5,0.3-0.9,0.5-1.3,0.5
		c-0.4,0-0.7-0.1-1-0.4s-0.4-0.6-0.4-1c0-0.8,0.7-1.6,2-2.3c1.4-0.7,2.9-1.3,4.5-1.7c1.7-0.4,3.3-0.6,5-0.6
		C293.9,355,296.4,355.8,298.1,357.5z M294.8,376.8c1.6-1.6,2.4-3.6,2.4-6V369h-1.1c-3.7,0-6.6,0.1-8.6,0.4c-2,0.3-3.4,0.8-4.2,1.5
		s-1.2,1.7-1.2,3c0,1.5,0.6,2.7,1.9,3.7c1.2,1,2.8,1.5,4.6,1.5C291.1,379.2,293.1,378.4,294.8,376.8z"/>
	<path class="st3" d="M325.7,381.4c-0.3-0.3-0.5-0.7-0.5-1.2v-34.8c0-0.5,0.2-0.9,0.5-1.2c0.3-0.3,0.8-0.5,1.3-0.5s1,0.2,1.3,0.5
		c0.3,0.3,0.5,0.7,0.5,1.2v34.8c0,0.5-0.2,0.9-0.5,1.2s-0.8,0.5-1.3,0.5S326.1,381.7,325.7,381.4z"/>
	<path class="st3" d="M378.7,365.1v15.1c0,0.5-0.2,0.9-0.5,1.2c-0.3,0.3-0.7,0.5-1.3,0.5s-1-0.2-1.3-0.5s-0.5-0.7-0.5-1.2v-14.9
		c0-2.6-0.5-4.5-1.5-5.6c-1-1.2-2.6-1.7-4.8-1.7c-2.5,0-4.5,0.8-6,2.4c-1.5,1.6-2.2,3.7-2.2,6.3v13.6c0,0.5-0.2,0.9-0.5,1.2
		c-0.3,0.3-0.7,0.5-1.3,0.5c-0.5,0-1-0.2-1.3-0.5s-0.5-0.7-0.5-1.2v-14.9c0-2.6-0.5-4.5-1.5-5.6s-2.6-1.7-4.8-1.7
		c-2.5,0-4.5,0.8-6,2.4c-1.5,1.6-2.2,3.7-2.2,6.3v13.6c0,0.5-0.2,0.9-0.5,1.2s-0.7,0.5-1.3,0.5c-0.5,0-1-0.2-1.3-0.5
		c-0.3-0.3-0.5-0.7-0.5-1.2v-23.4c0-0.5,0.2-0.9,0.5-1.2c0.3-0.3,0.8-0.4,1.3-0.4c0.5,0,1,0.1,1.3,0.4c0.3,0.3,0.4,0.7,0.4,1.2v3.2
		c0.8-1.6,2-2.8,3.5-3.7s3.3-1.3,5.3-1.3c4.5,0,7.4,1.7,8.7,5.1c0.8-1.6,2.1-2.9,3.7-3.8c1.7-0.9,3.6-1.4,5.8-1.4
		C375.6,355,378.7,358.4,378.7,365.1z"/>
	<path class="st3" d="M406.8,357.5c1.7,1.6,2.5,4.1,2.5,7.4v15.3c0,0.5-0.2,0.9-0.5,1.2c-0.3,0.3-0.7,0.5-1.3,0.5
		c-0.5,0-1-0.2-1.3-0.5c-0.3-0.3-0.5-0.7-0.5-1.2V377c-0.8,1.6-2,2.8-3.6,3.7c-1.6,0.9-3.3,1.3-5.4,1.3c-1.8,0-3.5-0.3-5-1
		c-1.5-0.7-2.7-1.6-3.6-2.8c-0.9-1.2-1.3-2.5-1.3-4c0-1.9,0.5-3.4,1.6-4.5c1.1-1.1,2.9-1.8,5.4-2.3c2.5-0.5,6-0.7,10.5-0.7h1.2v-2
		c0-2.4-0.5-4.1-1.6-5.2c-1-1.1-2.7-1.6-5-1.6c-2.9,0-5.6,0.7-8.2,2.1c-0.1,0.1-0.4,0.3-0.9,0.6c-0.5,0.3-0.9,0.5-1.3,0.5
		c-0.4,0-0.7-0.1-1-0.4s-0.4-0.6-0.4-1c0-0.8,0.7-1.6,2-2.3c1.4-0.7,2.9-1.3,4.5-1.7c1.7-0.4,3.3-0.6,5-0.6
		C402.5,355,405.1,355.8,406.8,357.5z M403.4,376.8c1.6-1.6,2.4-3.6,2.4-6V369h-1.1c-3.7,0-6.6,0.1-8.6,0.4c-2,0.3-3.4,0.8-4.2,1.5
		s-1.2,1.7-1.2,3c0,1.5,0.6,2.7,1.9,3.7c1.2,1,2.8,1.5,4.6,1.5C399.7,379.2,401.8,378.4,403.4,376.8z"/>
	<path class="st3" d="M442.4,355.6c0.3,0.3,0.5,0.7,0.5,1.2v23.3c0,3.8-1,6.6-3.1,8.6c-2,1.9-5.1,2.9-9.1,2.9c-2.1,0-4-0.2-5.6-0.6
		c-1.7-0.4-3.2-1-4.6-1.7c-1.4-0.8-2.1-1.6-2.1-2.3c0-0.4,0.1-0.7,0.4-1c0.3-0.3,0.6-0.4,1-0.4c0.2,0,0.6,0.1,1,0.3
		c0.4,0.2,0.7,0.3,0.8,0.4c1.3,0.7,2.7,1.2,4.1,1.7s3.1,0.7,5.2,0.7c2.8,0,5-0.7,6.4-2.1c1.4-1.4,2.2-3.5,2.2-6.2v-5.1
		c-0.8,1.7-2.1,3.1-3.8,4c-1.7,0.9-3.7,1.4-6.1,1.4c-2.5,0-4.7-0.5-6.6-1.6c-1.9-1.1-3.4-2.6-4.5-4.5c-1.1-2-1.6-4.2-1.6-6.7
		c0-2.5,0.5-4.8,1.6-6.7c1.1-2,2.6-3.5,4.5-4.5c1.9-1.1,4.1-1.6,6.6-1.6c2.4,0,4.4,0.5,6.1,1.4c1.7,0.9,2.9,2.2,3.8,4v-3.6
		c0-0.5,0.2-0.9,0.5-1.2c0.3-0.3,0.7-0.5,1.3-0.5C441.6,355.1,442,355.3,442.4,355.6z M436.8,375.2c1.7-1.8,2.5-4.2,2.5-7.3
		s-0.8-5.6-2.5-7.4c-1.7-1.8-4-2.7-6.9-2.7c-3,0-5.3,0.9-6.9,2.7c-1.7,1.8-2.5,4.2-2.5,7.4c0,3.1,0.8,5.6,2.5,7.4s4,2.6,6.9,2.6
		C432.9,377.9,435.2,377,436.8,375.2z"/>
	<path class="st3" d="M474.8,376.5c0.3,0.3,0.4,0.6,0.4,0.9c0,0.8-0.7,1.6-2,2.3c-2.8,1.5-5.7,2.3-8.9,2.3c-4.3,0-7.7-1.2-10.2-3.6
		c-2.5-2.4-3.7-5.7-3.7-9.8c0-2.7,0.6-5,1.7-7.1c1.1-2.1,2.7-3.6,4.7-4.8c2-1.1,4.3-1.7,6.9-1.7c3.7,0,6.5,1.1,8.7,3.2
		c2.1,2.2,3.2,5.1,3.2,8.9c0,0.6-0.2,1.1-0.5,1.4c-0.3,0.3-0.8,0.5-1.5,0.5h-19.4c0.1,3.3,1,5.8,2.8,7.5c1.7,1.7,4.2,2.6,7.4,2.6
		c1.7,0,3.1-0.2,4.2-0.6c1.1-0.4,2.3-1,3.6-1.6c0.9-0.5,1.5-0.8,1.8-0.8S474.5,376.2,474.8,376.5z M457.1,360.1
		c-1.6,1.6-2.6,3.8-2.9,6.6h18c-0.1-2.9-0.9-5.1-2.3-6.6c-1.5-1.6-3.6-2.3-6.2-2.3C460.9,357.7,458.7,358.5,457.1,360.1z"/>
	<path class="st3" d="M506.3,365.1v15.1c0,0.5-0.2,0.9-0.5,1.2c-0.3,0.3-0.7,0.5-1.3,0.5c-0.5,0-1-0.2-1.3-0.5s-0.5-0.7-0.5-1.2
		v-14.9c0-2.6-0.6-4.4-1.7-5.6c-1.1-1.2-2.9-1.8-5.4-1.8c-2.8,0-5,0.8-6.7,2.4c-1.7,1.6-2.5,3.7-2.5,6.3v13.6c0,0.5-0.2,0.9-0.5,1.2
		s-0.7,0.5-1.3,0.5c-0.5,0-1-0.2-1.3-0.5c-0.3-0.3-0.5-0.7-0.5-1.2v-23.4c0-0.5,0.2-0.9,0.5-1.2c0.3-0.3,0.8-0.5,1.3-0.5
		c0.5,0,0.9,0.1,1.2,0.4c0.3,0.3,0.5,0.7,0.5,1.2v3.4c0.9-1.6,2.2-2.9,3.9-3.8s3.6-1.3,5.9-1.3C502.9,355,506.3,358.4,506.3,365.1z"
		/>
	<path class="st3" d="M207.8,432.6c-0.3-0.2-0.4-0.6-0.4-1c0-0.4,0.1-0.8,0.4-1c0.3-0.3,0.7-0.4,1.2-0.4h13.2c0.5,0,0.9,0.1,1.2,0.4
		c0.3,0.3,0.4,0.6,0.4,1c0,0.4-0.1,0.7-0.4,1c-0.3,0.3-0.7,0.4-1.2,0.4H209C208.5,433,208.1,432.9,207.8,432.6z"/>
	<path class="st3" d="M251.6,444.5c-2-1.1-3.5-2.7-4.6-4.7c-1.1-2-1.6-4.4-1.6-7.1s0.5-5.1,1.6-7.1c1.1-2,2.6-3.6,4.6-4.7
		c2-1.1,4.2-1.7,6.8-1.7c2.6,0,4.8,0.6,6.8,1.7s3.5,2.7,4.6,4.7c1.1,2,1.6,4.4,1.6,7.1s-0.5,5.1-1.6,7.1s-2.6,3.6-4.6,4.7
		c-2,1.1-4.3,1.7-6.8,1.7C255.9,446.2,253.6,445.6,251.6,444.5z M265.3,440.6c1.6-1.8,2.4-4.4,2.4-7.9c0-3.4-0.8-6-2.5-7.8
		c-1.7-1.9-3.9-2.8-6.8-2.8c-3,0-5.2,0.9-6.9,2.8c-1.6,1.9-2.4,4.5-2.4,7.8c0,3.4,0.8,6,2.4,7.9c1.6,1.8,3.9,2.7,6.9,2.7
		C261.4,443.3,263.7,442.4,265.3,440.6z"/>
	<path class="st3" d="M293.4,432.6c-0.3-0.2-0.4-0.6-0.4-1c0-0.4,0.1-0.8,0.4-1c0.3-0.3,0.7-0.4,1.2-0.4h13.2c0.5,0,0.9,0.1,1.2,0.4
		c0.3,0.3,0.4,0.6,0.4,1c0,0.4-0.1,0.7-0.4,1c-0.3,0.3-0.7,0.4-1.2,0.4h-13.2C294.1,433,293.7,432.9,293.4,432.6z"/>
	<path class="st3" d="M134.7,501c-1.6-0.4-3-1-4.2-1.7c-0.7-0.5-1.3-0.9-1.5-1.2c-0.3-0.3-0.4-0.7-0.4-1.2c0-0.4,0.1-0.7,0.4-0.9
		c0.3-0.2,0.6-0.4,0.9-0.4s1,0.3,1.8,0.8c1.1,0.7,2.3,1.2,3.5,1.7c1.2,0.4,2.7,0.6,4.5,0.6c2.3,0,4.1-0.4,5.4-1.2
		c1.3-0.8,1.9-1.9,1.9-3.3c0-0.9-0.2-1.6-0.7-2.1c-0.5-0.6-1.2-1-2.3-1.4c-1.1-0.4-2.6-0.8-4.7-1.2c-3.5-0.7-5.9-1.6-7.4-2.8
		c-1.5-1.1-2.2-2.6-2.2-4.5c0-2.3,1-4.1,2.9-5.5c1.9-1.4,4.5-2.1,7.6-2.1c1.5,0,3,0.2,4.3,0.5c1.4,0.4,2.6,0.9,3.6,1.6
		c1.4,0.9,2,1.7,2,2.5c0,0.4-0.1,0.7-0.4,0.9c-0.3,0.3-0.6,0.4-0.9,0.4c-0.4,0-1-0.3-1.8-0.9c-1-0.7-2.1-1.2-3.1-1.6
		c-1-0.4-2.3-0.6-3.9-0.6c-2,0-3.6,0.4-4.8,1.3c-1.2,0.8-1.8,2-1.8,3.4c0,0.8,0.2,1.5,0.6,2c0.4,0.5,1.1,1,2.1,1.4
		c1,0.4,2.4,0.8,4.3,1.2c2.7,0.6,4.7,1.2,6.2,1.8c1.4,0.6,2.5,1.4,3.1,2.3c0.6,0.9,0.9,2,0.9,3.4c0,2.2-1,3.9-3,5.3
		c-2,1.3-4.7,2-8,2C137.9,501.6,136.3,501.4,134.7,501z"/>
	<path class="st3" d="M180.8,496.1c0.3,0.3,0.4,0.6,0.4,0.9c0,0.8-0.7,1.6-2,2.3c-2.8,1.5-5.7,2.3-8.9,2.3c-4.3,0-7.7-1.2-10.2-3.6
		c-2.5-2.4-3.7-5.7-3.7-9.8c0-2.7,0.6-5,1.7-7.1c1.1-2.1,2.7-3.6,4.7-4.8c2-1.1,4.3-1.7,6.9-1.7c3.7,0,6.5,1.1,8.7,3.2
		c2.1,2.2,3.2,5.1,3.2,8.9c0,0.6-0.2,1.1-0.5,1.4c-0.3,0.3-0.8,0.5-1.5,0.5h-19.4c0.1,3.3,1,5.8,2.8,7.5c1.7,1.7,4.2,2.6,7.4,2.6
		c1.7,0,3.1-0.2,4.2-0.6c1.1-0.4,2.3-1,3.6-1.6c0.9-0.5,1.5-0.8,1.8-0.8S180.5,495.8,180.8,496.1z M163.1,479.7
		c-1.6,1.6-2.6,3.8-2.9,6.6h18c-0.1-2.9-0.9-5.1-2.3-6.6c-1.5-1.6-3.6-2.3-6.2-2.3C166.9,477.4,164.8,478.1,163.1,479.7z"/>
	<path class="st3" d="M189.4,501.1c-0.3-0.3-0.5-0.7-0.5-1.2v-34.9c0-0.5,0.2-0.9,0.5-1.2c0.3-0.3,0.8-0.4,1.3-0.4
		c0.5,0,0.9,0.1,1.3,0.4c0.3,0.3,0.5,0.7,0.5,1.2v34.9c0,0.5-0.2,0.9-0.5,1.2c-0.3,0.3-0.7,0.4-1.3,0.4
		C190.1,501.5,189.7,501.4,189.4,501.1z"/>
	<path class="st3" d="M224.4,496.1c0.3,0.3,0.4,0.6,0.4,0.9c0,0.8-0.7,1.6-2,2.3c-2.8,1.5-5.7,2.3-8.9,2.3c-4.3,0-7.7-1.2-10.2-3.6
		c-2.5-2.4-3.7-5.7-3.7-9.8c0-2.7,0.6-5,1.7-7.1c1.1-2.1,2.7-3.6,4.7-4.8c2-1.1,4.3-1.7,6.9-1.7c3.7,0,6.5,1.1,8.7,3.2
		c2.1,2.2,3.2,5.1,3.2,8.9c0,0.6-0.2,1.1-0.5,1.4c-0.3,0.3-0.8,0.5-1.5,0.5h-19.4c0.1,3.3,1,5.8,2.8,7.5c1.7,1.7,4.2,2.6,7.4,2.6
		c1.7,0,3.1-0.2,4.2-0.6c1.1-0.4,2.3-1,3.6-1.6c0.9-0.5,1.5-0.8,1.8-0.8S224.1,495.8,224.4,496.1z M206.7,479.7
		c-1.6,1.6-2.6,3.8-2.9,6.6h18c-0.1-2.9-0.9-5.1-2.3-6.6c-1.5-1.6-3.6-2.3-6.2-2.3C210.5,477.4,208.3,478.1,206.7,479.7z"/>
	<path class="st3" d="M236.9,500c-2-1.1-3.5-2.7-4.6-4.7c-1.1-2-1.6-4.4-1.6-7c0-2.7,0.6-5,1.7-7.1c1.1-2.1,2.7-3.6,4.7-4.8
		c2-1.1,4.3-1.7,6.9-1.7c1.5,0,2.9,0.2,4.3,0.5c1.4,0.4,2.6,0.9,3.7,1.6c0.7,0.5,1.2,0.9,1.5,1.3c0.3,0.4,0.4,0.8,0.4,1.2
		c0,0.4-0.1,0.7-0.3,1s-0.5,0.4-0.9,0.4c-0.4,0-1-0.3-1.9-0.9c-1-0.7-2-1.2-3-1.6c-1-0.4-2.2-0.6-3.7-0.6c-3,0-5.4,1-7.1,2.9
		c-1.7,1.9-2.6,4.5-2.6,7.9c0,3.3,0.8,5.9,2.5,7.7c1.7,1.8,4,2.8,7.1,2.8c1.5,0,2.7-0.2,3.7-0.6c1-0.4,2.1-0.9,3.2-1.6
		c0.3-0.2,0.7-0.4,1-0.6c0.3-0.2,0.6-0.3,0.8-0.3c0.4,0,0.7,0.1,0.9,0.4c0.2,0.3,0.3,0.6,0.3,0.9c0,0.4-0.1,0.8-0.4,1.1
		c-0.3,0.3-0.8,0.7-1.6,1.2c-1,0.7-2.3,1.3-3.8,1.7c-1.5,0.4-3,0.6-4.5,0.6C241.1,501.6,238.9,501.1,236.9,500z"/>
	<path class="st3" d="M264.5,500c-2-1.1-3.5-2.7-4.6-4.7c-1.1-2-1.6-4.4-1.6-7c0-2.7,0.6-5,1.7-7.1c1.1-2.1,2.7-3.6,4.7-4.8
		c2-1.1,4.3-1.7,6.9-1.7c1.5,0,2.9,0.2,4.3,0.5c1.4,0.4,2.6,0.9,3.7,1.6c0.7,0.5,1.2,0.9,1.5,1.3c0.3,0.4,0.4,0.8,0.4,1.2
		c0,0.4-0.1,0.7-0.3,1s-0.5,0.4-0.9,0.4c-0.4,0-1-0.3-1.9-0.9c-1-0.7-2-1.2-3-1.6s-2.2-0.6-3.7-0.6c-3,0-5.4,1-7.1,2.9
		s-2.6,4.5-2.6,7.9c0,3.3,0.8,5.9,2.5,7.7c1.7,1.8,4,2.8,7.1,2.8c1.5,0,2.7-0.2,3.7-0.6c1-0.4,2.1-0.9,3.2-1.6
		c0.3-0.2,0.7-0.4,1-0.6c0.3-0.2,0.6-0.3,0.8-0.3c0.4,0,0.7,0.1,0.9,0.4c0.2,0.3,0.3,0.6,0.3,0.9c0,0.4-0.1,0.8-0.4,1.1
		c-0.3,0.3-0.8,0.7-1.6,1.2c-1,0.7-2.3,1.3-3.8,1.7c-1.5,0.4-3,0.6-4.5,0.6C268.8,501.6,266.5,501.1,264.5,500z"/>
	<path class="st3" d="M287.7,468.1c-0.5-0.4-0.7-1-0.7-1.7c0-0.7,0.2-1.3,0.7-1.7c0.5-0.4,1.1-0.6,1.9-0.6c0.8,0,1.4,0.2,1.9,0.6
		c0.5,0.4,0.7,1,0.7,1.7c0,0.7-0.2,1.2-0.7,1.7c-0.5,0.4-1.1,0.6-1.9,0.6C288.8,468.7,288.2,468.5,287.7,468.1z M288.3,501.1
		c-0.3-0.3-0.5-0.7-0.5-1.2v-23.4c0-0.5,0.2-0.9,0.5-1.2c0.3-0.3,0.8-0.4,1.3-0.4c0.5,0,1,0.1,1.3,0.4c0.3,0.3,0.5,0.7,0.5,1.2v23.4
		c0,0.5-0.2,0.9-0.5,1.2s-0.7,0.4-1.3,0.4C289.1,501.5,288.6,501.4,288.3,501.1z"/>
	<path class="st3" d="M305.1,500c-2-1.1-3.5-2.7-4.6-4.7c-1.1-2-1.6-4.4-1.6-7.1s0.5-5.1,1.6-7.1c1.1-2,2.6-3.6,4.6-4.7
		c2-1.1,4.2-1.7,6.8-1.7c2.6,0,4.8,0.6,6.8,1.7s3.5,2.7,4.6,4.7c1.1,2,1.6,4.4,1.6,7.1s-0.5,5.1-1.6,7.1c-1.1,2-2.6,3.6-4.6,4.7
		c-2,1.1-4.3,1.7-6.8,1.7C309.4,501.6,307.1,501.1,305.1,500z M318.8,496c1.6-1.8,2.4-4.4,2.4-7.9c0-3.4-0.8-6-2.5-7.8
		c-1.7-1.9-3.9-2.8-6.8-2.8c-3,0-5.2,0.9-6.9,2.8c-1.6,1.9-2.4,4.5-2.4,7.8c0,3.4,0.8,6,2.4,7.9c1.6,1.8,3.9,2.7,6.9,2.7
		C314.9,498.8,317.2,497.8,318.8,496z"/>
	<path class="st3" d="M355.9,484.7v15.1c0,0.5-0.2,0.9-0.5,1.2c-0.3,0.3-0.7,0.5-1.3,0.5c-0.5,0-1-0.2-1.3-0.5s-0.5-0.7-0.5-1.2V485
		c0-2.6-0.6-4.4-1.7-5.6c-1.1-1.2-2.9-1.8-5.4-1.8c-2.8,0-5,0.8-6.7,2.4c-1.7,1.6-2.5,3.7-2.5,6.3v13.6c0,0.5-0.2,0.9-0.5,1.2
		s-0.7,0.5-1.3,0.5c-0.5,0-1-0.2-1.3-0.5c-0.3-0.3-0.5-0.7-0.5-1.2v-23.4c0-0.5,0.2-0.9,0.5-1.2c0.3-0.3,0.8-0.5,1.3-0.5
		c0.5,0,0.9,0.1,1.2,0.4c0.3,0.3,0.5,0.7,0.5,1.2v3.4c0.9-1.6,2.2-2.9,3.9-3.8s3.6-1.3,5.9-1.3C352.5,474.7,355.9,478,355.9,484.7z"
		/>
	<path class="st3" d="M384,477.1c1.7,1.6,2.5,4.1,2.5,7.4v15.3c0,0.5-0.2,0.9-0.5,1.2c-0.3,0.3-0.7,0.5-1.3,0.5
		c-0.5,0-1-0.2-1.3-0.5c-0.3-0.3-0.5-0.7-0.5-1.2v-3.2c-0.8,1.6-2,2.8-3.6,3.7c-1.6,0.9-3.3,1.3-5.4,1.3c-1.8,0-3.5-0.3-5-1
		c-1.5-0.7-2.7-1.6-3.6-2.8c-0.9-1.2-1.3-2.5-1.3-4c0-1.9,0.5-3.4,1.6-4.5c1.1-1.1,2.9-1.8,5.4-2.3c2.5-0.5,6-0.7,10.5-0.7h1.2v-2
		c0-2.4-0.5-4.1-1.6-5.2c-1-1.1-2.7-1.6-5-1.6c-2.9,0-5.6,0.7-8.2,2.1c-0.1,0.1-0.4,0.3-0.9,0.6c-0.5,0.3-0.9,0.5-1.3,0.5
		c-0.4,0-0.7-0.1-1-0.4s-0.4-0.6-0.4-1c0-0.8,0.7-1.6,2-2.3c1.4-0.7,2.9-1.3,4.5-1.7c1.7-0.4,3.3-0.6,5-0.6
		C379.8,474.7,382.3,475.5,384,477.1z M380.6,496.5c1.6-1.6,2.4-3.6,2.4-6v-1.8h-1.1c-3.7,0-6.6,0.1-8.6,0.4c-2,0.3-3.4,0.8-4.2,1.5
		s-1.2,1.7-1.2,3c0,1.5,0.6,2.7,1.9,3.7c1.2,1,2.8,1.5,4.6,1.5C376.9,498.8,379,498,380.6,496.5z"/>
</g>
</svg>
